<?xml version="1.0" encoding="UTF-8" standalone="no"?>
<svg
   xmlns:dc="http://purl.org/dc/elements/1.1/"
   xmlns:cc="http://creativecommons.org/ns#"
   xmlns:rdf="http://www.w3.org/1999/02/22-rdf-syntax-ns#"
   xmlns:svg="http://www.w3.org/2000/svg"
   xmlns="http://www.w3.org/2000/svg"
   xmlns:sodipodi="http://sodipodi.sourceforge.net/DTD/sodipodi-0.dtd"
   xmlns:inkscape="http://www.inkscape.org/namespaces/inkscape"
   version="1.1"
   id="Layer_1"
   x="0px"
   y="0px"
   viewBox="0 0 45 45"
   style="enable-background:new 0 0 45 45;"
   xml:space="preserve"
   sodipodi:docname="black_queen_square.svg"
   inkscape:version="0.92.3 (2405546, 2018-03-11)"><metadata
     id="metadata3821"><rdf:RDF><cc:Work
         rdf:about=""><dc:format>image/svg+xml</dc:format><dc:type
           rdf:resource="http://purl.org/dc/dcmitype/StillImage" /><dc:title></dc:title></cc:Work></rdf:RDF></metadata><defs
     id="defs3819" /><sodipodi:namedview
     pagecolor="#ffffff"
     bordercolor="#666666"
     borderopacity="1"
     objecttolerance="10"
     gridtolerance="10"
     guidetolerance="10"
     inkscape:pageopacity="0"
     inkscape:pageshadow="2"
     inkscape:window-width="1853"
     inkscape:window-height="1025"
     id="namedview3817"
     showgrid="false"
     inkscape:zoom="16"
     inkscape:cx="22.5"
     inkscape:cy="21.98584"
     inkscape:window-x="67"
     inkscape:window-y="27"
     inkscape:window-maximized="1"
     inkscape:current-layer="Layer_1" /><style
     type="text/css"
     id="style3802">.st0{stroke:#000000;stroke-width:1.5;stroke-linejoin:round;}.st1{stroke:#000000;stroke-width:1.5;}.st2{fill:none;stroke:#ECECEC;stroke-linecap:round;}.st3{fill:#3EAF4E;stroke:#FFFFFF;stroke-width:1.1821;stroke-linecap:round;stroke-linejoin:round;}</style><g
     transform="translate(-9e-8,0.215902)"
     style="fill-rule:evenodd;stroke:#000000;stroke-width:1.5;stroke-linecap:round;stroke-linejoin:round"
     id="g3911"><g
       style="stroke:none"
       id="g3901"><circle
         cx="6"
         cy="12"
         r="2.75"
         id="circle3891" /><circle
         cx="14"
         cy="9"
         r="2.75"
         id="circle3893" /><circle
         cx="22.5"
         cy="8"
         r="2.75"
         id="circle3895" /><circle
         cx="31"
         cy="9"
         r="2.75"
         id="circle3897" /><circle
         cx="39"
         cy="12"
         r="2.75"
         id="circle3899" /></g><path
       style="stroke-linecap:butt"
       inkscape:connector-curvature="0"
       d="m 9,26 c 8.5,-1.5 21,-1.5 27,0 L 38.5,13.5 31,25 30.7,10.9 25.5,24.5 22.5,10 19.5,24.5 14.3,10.9 14,25 6.5,13.5 Z"
       id="path3903" /><path
       style="stroke-linecap:butt"
       inkscape:connector-curvature="0"
       d="m 9,26 c 0,2 1.5,2 2.5,4 1,1.5 1,1 0.5,3.5 -1.5,1 -1.5,2.5 -1.5,2.5 -1.5,1.5 0.5,2.5 0.5,2.5 6.5,1 16.5,1 23,0 0,0 1.5,-1 0,-2.5 0,0 0.5,-1.5 -1,-2.5 -0.5,-2.5 -0.5,-2 0.5,-3.5 1,-2 2.5,-2 2.5,-4 -8.5,-1.5 -18.5,-1.5 -27,0 z"
       id="path3905" /><path
       style="fill:none;stroke-linecap:butt"
       inkscape:connector-curvature="0"
       d="m 11,38.5 a 35,35 1 0 0 23,0"
       id="path3907" /><path
       style="fill:none;stroke:#ececec"
       inkscape:connector-curvature="0"
       d="m 11,29 a 35,35 1 0 1 23,0 m -21.5,2.5 h 20 m -21,3 a 35,35 1 0 0 22,0 m -23,3 a 35,35 1 0 0 24,0"
       id="path3909" /></g><rect
     x="28.362499"
     y="28.25"
     class="st3"
     width="13.8"
     height="13.8"
     id="rect3814"
     style="fill:#3eaf4e;stroke:#ffffff;stroke-width:1.18210006;stroke-linecap:round;stroke-linejoin:round" /></svg>