<?xml version="1.0" encoding="UTF-8" standalone="no"?>
<svg
   xmlns:dc="http://purl.org/dc/elements/1.1/"
   xmlns:cc="http://creativecommons.org/ns#"
   xmlns:rdf="http://www.w3.org/1999/02/22-rdf-syntax-ns#"
   xmlns:svg="http://www.w3.org/2000/svg"
   xmlns="http://www.w3.org/2000/svg"
   xmlns:sodipodi="http://sodipodi.sourceforge.net/DTD/sodipodi-0.dtd"
   xmlns:inkscape="http://www.inkscape.org/namespaces/inkscape"
   version="1.1"
   id="Layer_1"
   x="0px"
   y="0px"
   viewBox="0 0 45 45"
   style="enable-background:new 0 0 45 45;"
   xml:space="preserve"
   sodipodi:docname="black_knight.svg"
   inkscape:version="0.92.3 (2405546, 2018-03-11)"><metadata
     id="metadata840"><rdf:RDF><cc:Work
         rdf:about=""><dc:format>image/svg+xml</dc:format><dc:type
           rdf:resource="http://purl.org/dc/dcmitype/StillImage" /></cc:Work></rdf:RDF></metadata><defs
     id="defs838" /><sodipodi:namedview
     pagecolor="#ffffff"
     bordercolor="#666666"
     borderopacity="1"
     objecttolerance="10"
     gridtolerance="10"
     guidetolerance="10"
     inkscape:pageopacity="0"
     inkscape:pageshadow="2"
     inkscape:window-width="1853"
     inkscape:window-height="1025"
     id="namedview836"
     showgrid="false"
     inkscape:zoom="16"
     inkscape:cx="22.5"
     inkscape:cy="21.98584"
     inkscape:window-x="67"
     inkscape:window-y="27"
     inkscape:window-maximized="1"
     inkscape:current-layer="Layer_1" /><style
     type="text/css"
     id="style821">.st0{stroke:#000000;stroke-width:1.5;stroke-linecap:round;stroke-linejoin:round;}.st1{fill:#ECECEC;stroke:#ECECEC;stroke-width:1.5;stroke-linecap:round;stroke-linejoin:round;}.st2{fill:#ECECEC;}.st3{fill:#3EAF4E;stroke:#FFFFFF;stroke-width:1.1821;stroke-linecap:round;stroke-linejoin:round;}</style><g
     id="g831"><path
       class="st0"
       d="M22,10c10.5,1,16.5,8,16,29H15c0-9,10-6.5,8-21"
       id="path823" /><path
       class="st0"
       d="M24,18c0.4,2.9-5.5,7.4-8,9c-3,2-2.8,4.3-5,4c-1-0.9,1.4-3,0-3c-1,0,0.2,1.2-1,2c-1,0-4,1-4-4c0-2,6-12,6-12s1.9-1.9,2-3.5c-0.7-1-0.5-2-0.5-3c1-1,3,2.5,3,2.5h2c0,0,0.8-2,2.5-3c1,0,1,3,1,3"
       id="path825" /><path
       class="st1"
       d="M9.5,25.5C9.5,25.8,9.3,26,9,26s-0.5-0.2-0.5-0.5S8.7,25,9,25S9.5,25.2,9.5,25.5z M14.9,15.7c-0.4,0.7-0.9,1.2-1.2,1.1c-0.2-0.1-0.1-0.8,0.3-1.5c0,0,0,0,0,0c0.4-0.7,0.9-1.2,1.2-1.1C15.5,14.3,15.4,15,14.9,15.7C14.9,15.7,14.9,15.7,14.9,15.7z"
       id="path827" /><path
       class="st2"
       d="M24.5,10.4l-0.5,1.4l0.5,0.1c3.1,1,5.6,2.5,7.9,6.8s3.3,10.3,2.8,20.2l0,0.5h2.3l0-0.5c0.5-10.1-0.9-16.8-3.3-21.3s-5.8-6.6-9.2-7.2C25.1,10.5,24.6,10.4,24.5,10.4z"
       id="path829" /></g><rect
     x="28.862499"
     y="28.375"
     class="st3"
     width="13.8"
     height="13.8"
     id="rect833"
     style="fill:#3eaf4e;stroke:#ffffff;stroke-width:1.18210006;stroke-linecap:round;stroke-linejoin:round" /></svg>