<?xml version="1.0" encoding="UTF-8" standalone="no"?>
<svg
   xmlns:dc="http://purl.org/dc/elements/1.1/"
   xmlns:cc="http://creativecommons.org/ns#"
   xmlns:rdf="http://www.w3.org/1999/02/22-rdf-syntax-ns#"
   xmlns:svg="http://www.w3.org/2000/svg"
   xmlns="http://www.w3.org/2000/svg"
   xmlns:sodipodi="http://sodipodi.sourceforge.net/DTD/sodipodi-0.dtd"
   xmlns:inkscape="http://www.inkscape.org/namespaces/inkscape"
   version="1.1"
   id="Layer_1"
   x="0px"
   y="0px"
   viewBox="0 0 45 45"
   style="enable-background:new 0 0 45 45;"
   xml:space="preserve"
   sodipodi:docname="black_rook.svg"
   inkscape:version="0.92.3 (2405546, 2018-03-11)"><metadata
     id="metadata481"><rdf:RDF><cc:Work
         rdf:about=""><dc:format>image/svg+xml</dc:format><dc:type
           rdf:resource="http://purl.org/dc/dcmitype/StillImage" /></cc:Work></rdf:RDF></metadata><defs
     id="defs479" /><sodipodi:namedview
     pagecolor="#ffffff"
     bordercolor="#666666"
     borderopacity="1"
     objecttolerance="10"
     gridtolerance="10"
     guidetolerance="10"
     inkscape:pageopacity="0"
     inkscape:pageshadow="2"
     inkscape:window-width="1853"
     inkscape:window-height="1025"
     id="namedview477"
     showgrid="false"
     inkscape:zoom="16"
     inkscape:cx="22.584226"
     inkscape:cy="21.814453"
     inkscape:window-x="67"
     inkscape:window-y="27"
     inkscape:window-maximized="1"
     inkscape:current-layer="Layer_1" /><style
     type="text/css"
     id="style462">.st0{stroke:#000000;stroke-width:1.5;stroke-linejoin:round;}.st1{stroke:#000000;stroke-width:1.5;}.st2{fill:none;stroke:#ECECEC;stroke-linecap:round;}.st3{fill:#3EAF4E;stroke:#FFFFFF;stroke-width:1.1821;stroke-linecap:round;stroke-linejoin:round;}</style><g
     id="g472"><path
       class="st0"
       d="M9,39h27v-3H9V39z M12.5,32l1.5-2.5h17l1.5,2.5H12.5z M12,36v-4h21v4H12z"
       id="path464" /><path
       class="st1"
       d="M14,29.5v-13h17v13H14z"
       id="path466" /><path
       class="st0"
       d="M14,16.5L11,14h23l-3,2.5H14z M11,14V9h4v2h5V9h5v2h5V9h4v5H11z"
       id="path468" /><path
       class="st2"
       d="M12,35.5h21 M13,31.5h19 M14,29.5h17 M14,16.5h17 M11,14h23"
       id="path470" /></g><rect
     x="28.487499"
     y="28.3125"
     class="st3"
     width="13.8"
     height="13.8"
     id="rect474"
     style="fill:#3eaf4e;stroke:#ffffff;stroke-width:1.18210006;stroke-linecap:round;stroke-linejoin:round" /></svg>