<?xml version="1.0" encoding="UTF-8" standalone="no"?>
<svg
   xmlns:dc="http://purl.org/dc/elements/1.1/"
   xmlns:cc="http://creativecommons.org/ns#"
   xmlns:rdf="http://www.w3.org/1999/02/22-rdf-syntax-ns#"
   xmlns:svg="http://www.w3.org/2000/svg"
   xmlns="http://www.w3.org/2000/svg"
   xmlns:sodipodi="http://sodipodi.sourceforge.net/DTD/sodipodi-0.dtd"
   xmlns:inkscape="http://www.inkscape.org/namespaces/inkscape"
   version="1.1"
   id="Layer_1"
   x="0px"
   y="0px"
   viewBox="0 0 45 45"
   style="enable-background:new 0 0 45 45;"
   xml:space="preserve"
   sodipodi:docname="white_knight.svg"
   inkscape:version="0.92.3 (2405546, 2018-03-11)"><metadata
     id="metadata760"><rdf:RDF><cc:Work
         rdf:about=""><dc:format>image/svg+xml</dc:format><dc:type
           rdf:resource="http://purl.org/dc/dcmitype/StillImage" /></cc:Work></rdf:RDF></metadata><defs
     id="defs758" /><sodipodi:namedview
     pagecolor="#ffffff"
     bordercolor="#666666"
     borderopacity="1"
     objecttolerance="10"
     gridtolerance="10"
     guidetolerance="10"
     inkscape:pageopacity="0"
     inkscape:pageshadow="2"
     inkscape:window-width="1853"
     inkscape:window-height="1025"
     id="namedview756"
     showgrid="false"
     inkscape:zoom="16"
     inkscape:cx="22.5"
     inkscape:cy="22.5"
     inkscape:window-x="67"
     inkscape:window-y="27"
     inkscape:window-maximized="1"
     inkscape:current-layer="g753" /><style
     type="text/css"
     id="style743">.st0{fill:#FFFFFF;stroke:#000000;stroke-width:1.5;stroke-linecap:round;stroke-linejoin:round;}.st1{stroke:#000000;stroke-width:1.5;stroke-linecap:round;stroke-linejoin:round;}.st2{fill:#3EAF4E;stroke:#000000;stroke-width:1.1821;stroke-linecap:round;stroke-linejoin:round;}</style><g
     id="g753"><path
       class="st0"
       d="m 22,10 c 10.5,1 16.5,8 16,29 H 15 c 0,-9 10,-6.5 8,-21"
       id="path745"
       inkscape:connector-curvature="0"
       style="fill:#ffffff;stroke:#000000;stroke-width:1.5;stroke-linecap:round;stroke-linejoin:round" /><path
       class="st0"
       d="m 24,18 c 0.4,2.9 -5.5,7.4 -8,9 -3,2 -2.8,4.3 -5,4 -1,-0.9 1.4,-3 0,-3 -1,0 0.2,1.2 -1,2 -1,0 -4,1 -4,-4 0,-2 6,-12 6,-12 0,0 1.9,-1.9 2,-3.5 -0.7,-1 -0.5,-2 -0.5,-3 1,-1 3,2.5 3,2.5 h 2 c 0,0 0.8,-2 2.5,-3 1,0 1,3 1,3"
       id="path747"
       inkscape:connector-curvature="0"
       style="fill:#ffffff;stroke:#000000;stroke-width:1.5;stroke-linecap:round;stroke-linejoin:round" /><path
       class="st1"
       d="M 9.5,25.5 C 9.5,25.8 9.3,26 9,26 8.7,26 8.5,25.8 8.5,25.5 8.5,25.2 8.7,25 9,25 c 0.3,0 0.5,0.2 0.5,0.5 z m 5.4,-9.8 c -0.4,0.7 -0.9,1.2 -1.2,1.1 -0.2,-0.1 -0.1,-0.8 0.3,-1.5 0,0 0,0 0,0 0.4,-0.7 0.9,-1.2 1.2,-1.1 0.3,0.1 0.2,0.8 -0.3,1.5 0,0 0,0 0,0 z"
       id="path749"
       inkscape:connector-curvature="0"
       style="stroke:#000000;stroke-width:1.5;stroke-linecap:round;stroke-linejoin:round" /><rect
       x="28.174999"
       y="28.0625"
       class="st2"
       width="13.8"
       height="13.8"
       id="rect751"
       style="fill:#3eaf4e;stroke:#000000;stroke-width:1.18210006;stroke-linecap:round;stroke-linejoin:round" /></g></svg>