<?xml version="1.0" encoding="UTF-8" standalone="no"?>
<svg
   xmlns:dc="http://purl.org/dc/elements/1.1/"
   xmlns:cc="http://creativecommons.org/ns#"
   xmlns:rdf="http://www.w3.org/1999/02/22-rdf-syntax-ns#"
   xmlns:svg="http://www.w3.org/2000/svg"
   xmlns="http://www.w3.org/2000/svg"
   xmlns:sodipodi="http://sodipodi.sourceforge.net/DTD/sodipodi-0.dtd"
   xmlns:inkscape="http://www.inkscape.org/namespaces/inkscape"
   version="1.1"
   id="Layer_1"
   x="0px"
   y="0px"
   viewBox="0 0 45 45"
   style="enable-background:new 0 0 45 45;"
   xml:space="preserve"
   sodipodi:docname="white_queen_square.svg"
   inkscape:version="0.92.3 (2405546, 2018-03-11)"><metadata
     id="metadata283"><rdf:RDF><cc:Work
         rdf:about=""><dc:format>image/svg+xml</dc:format><dc:type
           rdf:resource="http://purl.org/dc/dcmitype/StillImage" /><dc:title></dc:title></cc:Work></rdf:RDF></metadata><defs
     id="defs281" /><sodipodi:namedview
     pagecolor="#ffffff"
     bordercolor="#666666"
     borderopacity="1"
     objecttolerance="10"
     gridtolerance="10"
     guidetolerance="10"
     inkscape:pageopacity="0"
     inkscape:pageshadow="2"
     inkscape:window-width="1853"
     inkscape:window-height="1025"
     id="namedview279"
     showgrid="false"
     inkscape:zoom="16"
     inkscape:cx="22.96618"
     inkscape:cy="22.671951"
     inkscape:window-x="67"
     inkscape:window-y="27"
     inkscape:window-maximized="1"
     inkscape:current-layer="Layer_1" /><style
     type="text/css"
     id="style262">.st0{fill:#FFFFFF;stroke:#000000;stroke-width:1.5;stroke-linejoin:round;}.st1{fill:#FFFFFF;stroke:#000000;stroke-width:1.5;stroke-linecap:round;stroke-linejoin:round;}.st2{fill:#FFFFFF;stroke:#000000;stroke-width:1.5;}.st3{fill:none;stroke:#000000;stroke-width:1.5;stroke-linecap:round;}.st4{fill:#3EAF4E;stroke:#000000;stroke-width:1.1821;stroke-linecap:round;stroke-linejoin:round;}</style><g
     transform="translate(0.0557191,-4.6215898e-4)"
     style="fill:#ffffff;fill-rule:evenodd;stroke:#000000;stroke-width:1.5;stroke-linecap:round;stroke-linejoin:round"
     id="g149"><path
       inkscape:connector-curvature="0"
       d="m 8,12 a 2,2 0 1 1 -4,0 2,2 0 1 1 4,0 z M 24.5,7.5 a 2,2 0 1 1 -4,0 2,2 0 1 1 4,0 z M 41,12 a 2,2 0 1 1 -4,0 2,2 0 1 1 4,0 z M 16,8.5 a 2,2 0 1 1 -4,0 2,2 0 1 1 4,0 z M 33,9 a 2,2 0 1 1 -4,0 2,2 0 1 1 4,0 z"
       id="path141" /><path
       style="stroke-linecap:butt"
       inkscape:connector-curvature="0"
       d="m 9,26 c 8.5,-1.5 21,-1.5 27,0 L 38,14 31,25 V 11 l -5.5,13.5 -3,-15 -3,15 -5.5,-14 V 25 L 7,14 Z"
       id="path143" /><path
       style="stroke-linecap:butt"
       inkscape:connector-curvature="0"
       d="m 9,26 c 0,2 1.5,2 2.5,4 1,1.5 1,1 0.5,3.5 -1.5,1 -1.5,2.5 -1.5,2.5 -1.5,1.5 0.5,2.5 0.5,2.5 6.5,1 16.5,1 23,0 0,0 1.5,-1 0,-2.5 0,0 0.5,-1.5 -1,-2.5 -0.5,-2.5 -0.5,-2 0.5,-3.5 1,-2 2.5,-2 2.5,-4 -8.5,-1.5 -18.5,-1.5 -27,0 z"
       id="path145" /><path
       style="fill:none"
       inkscape:connector-curvature="0"
       d="M 11.5,30 C 15,29 30,29 33.5,30 M 12,33.5 c 6,-1 15,-1 21,0"
       id="path147" /></g><rect
     x="28.424999"
     y="28.0625"
     class="st4"
     width="13.8"
     height="13.8"
     id="rect276"
     style="fill:#3eaf4e;stroke:#000000;stroke-width:1.18210006;stroke-linecap:round;stroke-linejoin:round" /></svg>